<?xml version="1.0" encoding="utf-8"?>
<svg xmlns="http://www.w3.org/2000/svg" width="500" height="300">
	<rect width="100%" height="100%" fill="#ffffff"/>
	<svg x="0" y="0" width="500" height="300">
		<svg>
			<rect width="100%" height="100%" fill="#ffffff"/>
			<svg x="60" y="40" width="380" height="220">
				<svg>
					<rect width="100%" height="100%" fill="#f0f0f0"/>
				</svg>
				<line x1="0" x2="0" y1="220" y2="0" stroke="#bebebe"/>
				<line x1="108.571434" x2="108.571434" y1="220" y2="0" stroke="#bebebe"/>
				<line x1="217.142868" x2="217.142868" y1="220" y2="0" stroke="#bebebe"/>
				<line x1="325.714294" x2="325.714294" y1="220" y2="0" stroke="#bebebe"/>
				<line x1="0" x2="380" y1="260" y2="260" stroke="#bebebe"/>
				<line x1="0" x2="380" y1="150" y2="150" stroke="#bebebe"/>
				<line x1="0" x2="380" y1="40" y2="40" stroke="#bebebe"/>
				<line x1="0" x2="380" y1="-70" y2="-70" stroke="#bebebe"/>
				<polyline fill="none" stroke="#ff0fc0" stroke-linecap="round" stroke-width="2" points="0.000000 220.000000,0.380371 219.779800,0.760742 219.559570,1.141113 219.339340,1.521484 219.119110,1.901855 218.898895,2.282227 218.678711,2.662598 218.458466,3.042969 218.238235,3.423340 218.018005,3.803711 217.797806,4.184082 217.577606,4.564453 217.357376,4.944824 217.137146,5.325195 216.916901,5.705566 216.696701,6.085938 216.476501,6.466308 216.256271,6.846680 216.036041,7.227051 215.815811,7.607422 215.595596,7.987793 215.375397,8.368164 215.155167,8.748535 214.934937,9.128906 214.714706,9.509277 214.494492,9.889648 214.274307,10.270020 214.054077,10.650391 213.833832,11.030762 213.613632,11.411133 213.393402,11.791504 213.173203,12.171875 212.952972,12.552246 212.732742,12.932616 212.512527,13.312988 212.292297,13.693360 212.072098,14.073730 211.851868,14.454102 211.631638,14.834472 211.411423,15.214844 211.191193,15.595216 210.971008,15.975586 210.750763,16.355957 210.530533,16.736328 210.310333,17.116699 210.090103,17.497070 209.869904,17.877441 209.649673,18.257812 209.429443,18.638184 209.209229,19.018555 208.988998,19.398926 208.768799,19.779297 208.548569,20.159668 208.328339,20.530762 208.108109,20.911133 207.887863,21.291504 207.667664,21.671875 207.447433,22.052246 207.227234,22.432617 207.007004,22.812988 206.786774,23.193359 206.566559,23.573730 206.346329,23.954103 206.126129,24.334471 205.905899,24.714844 205.685669,25.095215 205.465454,25.475586 205.245224,25.855959 205.025040,26.236326 204.804794,26.616699 204.584564,26.997070 204.364365,27.377441 204.144165,27.757814 203.923935,28.138182 203.703705,28.518555 203.483459,28.898926 203.263260,29.279297 203.043060,29.659670 202.822830,30.040037 202.602600,30.420410 202.382370,30.800781 202.162155,31.190432 201.941971,31.580078 201.721725,31.951172 201.501495,32.340820 201.281265,32.711914 201.061066,33.101562 200.840866,33.472656 200.620636,33.853027 200.400406,34.233398 200.180161,34.613770 199.959961,34.994141 199.739761,35.374512 199.519531,35.754883 199.299301,36.144531 199.079071,36.515625 198.858856,36.905273 198.638672,37.276367 198.418427,37.666016 198.198196,38.037109 197.977966,38.426758 197.757751,38.797852 197.537567,39.187500 197.317337,39.558594 197.097092,39.948242 196.876862,40.319336 196.656662,40.708984 196.436462,41.089355 196.216232,41.469727 195.996002,41.850098 195.775757,42.230469 195.555557,42.610840 195.335358,42.991211 195.115128,43.362305 194.894897,43.751953 194.674667,44.123047 194.454453,44.512695 194.234268,44.883789 194.014023,45.273438 193.793793,45.653809 193.573563,46.034180 193.353363,46.414551 193.133163,46.794922 192.912933,47.175293 192.692703,47.555660 192.472458,47.936035 192.252258,48.316406 192.032059,48.687500 191.811829,49.077148 191.591599,49.448242 191.371368,49.837891 191.151154,50.208984 190.930954,50.598637 190.710724,50.969730 190.490494,51.359371 190.270264,51.730465 190.050049,52.120117 189.829865,52.491211 189.609589,52.871586 189.389389,53.251953 189.169159,53.632320 188.948929,54.012695 188.728714,54.393066 188.508484,54.773441 188.288300,55.153809 188.068054,55.534176 187.847824,55.914551 187.627625,56.294922 187.407394,56.675297 187.187195,57.055664 186.966965,57.436031 186.746735,57.816406 186.526520,58.196777 186.306290,58.577152 186.086090,58.957520 185.865860,59.337887 185.645630,59.718262 185.425415,60.098633 185.205185,60.479008 184.984985,60.859375 184.764755,61.239742 184.544525,61.620117 184.324326,62.000488 184.104126,62.380863 183.883896,62.761230 183.663666,63.141598 183.443420,63.521973 183.223221,63.902344 183.003021,64.282715 182.782791,64.663086 182.562561,65.043457 182.342331,65.423828 182.122116,65.804199 181.901932,66.184570 181.681686,66.564941 181.461456,66.945312 181.241226,67.325684 181.021011,67.706055 180.800827,68.086426 180.580597,68.466797 180.360352,68.847168 180.140121,69.227539 179.919922,69.607910 179.699722,69.988281 179.479492,70.368652 179.259262,70.749023 179.039017,71.129395 178.818817,71.509766 178.598618,71.890137 178.378387,72.270508 178.158157,72.650879 177.937927,73.031250 177.717712,73.411621 177.497528,73.791992 177.277283,74.172363 177.057053,74.552734 176.836823,74.933105 176.616623,75.313477 176.396423,75.693848 176.176193,76.074219 175.955963,76.454590 175.735718,76.834961 175.515518,77.215332 175.295319,77.595703 175.075089,77.976074 174.854858,78.356445 174.634628,78.736816 174.414413,79.117188 174.194214,79.497559 173.973984,79.877930 173.753754,80.258301 173.533524,80.638672 173.313309,81.019043 173.093124,81.399414 172.872894,81.779785 172.652649,82.160156 172.432419,82.540527 172.212219,82.920898 171.992020,83.301270 171.771790,83.681641 171.551559,84.062012 171.331314,84.442383 171.111115,84.822754 170.890915,85.203125 170.670685,85.583496 170.450455,85.963867 170.230225,86.344238 170.010010,86.724609 169.789825,87.104980 169.569580,87.485352 169.349350,87.865723 169.129120,88.246094 168.908920,88.626465 168.688721,89.006836 168.468491,89.387207 168.248260,89.767578 168.028015,90.147949 167.807816,90.528320 167.587616,90.908691 167.367386,91.289062 167.147156,91.669434 166.926941,92.049805 166.706711,92.430176 166.486511,92.810547 166.266281,93.190918 166.046051,93.571289 165.825851,93.951660 165.605606,94.332031 165.385422,94.712402 165.165192,95.092773 164.944946,95.482414 164.724747,95.862801 164.504517,96.243164 164.284317,96.623535 164.064087,97.003906 163.843857,97.384270 163.623642,97.764656 163.403412,98.145020 163.183212,98.525391 162.962982,98.905762 162.742752,99.286125 162.522537,99.666512 162.302307,100.046875 162.082123,100.427246 161.861877,100.807617 161.641647,101.187981 161.421448,101.568367 161.201202,101.948730 160.981018,102.329102 160.760788,102.709473 160.540543,103.089836 160.320343,103.470222 160.100113,103.850586 159.879913,104.230957 159.659683,104.611328 159.439453,104.982422 159.219223,105.372078 158.998978,105.743172 158.778778,106.132812 158.558578,106.503906 158.338348,106.893547 158.118118,107.264641 157.897888,107.654297 157.677673,108.025391 157.457489,108.415039 157.237244,108.786133 157.017014,109.175789 156.796783,109.546883 156.576569,109.936523 156.356384,110.307617 156.136154,110.697258 155.915909,111.068352 155.695679,111.458008 155.475479,111.829102 155.255280,112.218750 155.035049,112.589844 154.814819,112.979500 154.594574,113.350594 154.374374,113.740234 154.154175,114.111328 153.933945,114.500969 153.713715,114.872063 153.493484,115.261719 153.273270,115.632812 153.053085,116.022461 152.832840,116.393555 152.612610,116.783211 152.392380,117.154305 152.172180,117.543945 151.951981,117.915039 151.731750,118.304680 151.511520,118.675774 151.291275,119.065430 151.071075,119.436523 150.850876,119.826172 150.630646,120.197266 150.410416,120.586922 150.190186,120.958015 149.969971,121.347656 149.749771,121.718750 149.529541,122.108391 149.309311,122.479485 149.089081,122.869141 148.868866,123.240234 148.648682,123.620605 148.428452,124.000977 148.208206,124.381340 147.987976,124.761726 147.767746,125.142090 147.547531,125.522461 147.327347,125.902832 147.107117,126.283195 146.886871,126.663582 146.666641,127.043945 146.446442,127.424316 146.226242,127.804688 146.006012,128.185059 145.785782,128.565430 145.565552,128.945801 145.345337,129.326172 145.125137,129.706543 144.904907,130.086914 144.684677,130.467285 144.464447,130.847656 144.244232,131.228027 144.024048,131.608398 143.803802,131.988770 143.583572,132.369141 143.363342,132.749512 143.143143,133.129883 142.922943,133.500977 142.702713,133.890625 142.482483,134.261719 142.262238,134.651367 142.042038,135.022461 141.821838,135.412109 141.601608,135.783203 141.381378,136.172852 141.161148,136.543945 140.940933,136.933594 140.720749,137.304688 140.500504,137.694336 140.280273,138.065430 140.060043,138.455078 139.839828,138.826172 139.619644,139.215820 139.399414,139.586914 139.179169,139.976562 138.958939,140.347656 138.738739,140.737305 138.518539,141.108398 138.298309,141.498047 138.078079,141.869141 137.857834,142.258789 137.637634,142.639160 137.417404,143.019531 137.197205,143.399902 136.976974,143.780273 136.756744,144.160645 136.536530,144.541016 136.316299,144.921387 136.096100,145.301758 135.875870,145.682129 135.655640,146.062500 135.435440,146.442871 135.215195,146.823242 134.995010,147.203613 134.774780,147.583984 134.554535,147.964355 134.334335,148.344727 134.114105,148.725098 133.893906,149.105469 133.673676,149.485840 133.453445,149.866211 133.233231,150.246582 133.013000,150.626953 132.792801,151.007324 132.572571,151.387695 132.352341,151.768066 132.132126,152.148438 131.911896,152.528809 131.691711,152.909180 131.471466,153.289551 131.251236,153.669922 131.031036,154.050293 130.810791,154.430664 130.590607,154.811035 130.370377,155.191406 130.150131,155.571777 129.929932,155.952148 129.709702,156.332520 129.489502,156.712891 129.269272,157.093262 129.049042,157.473633 128.828827,157.854004 128.608597,158.234375 128.388397,158.624023 128.168167,159.004395 127.947937,159.384766 127.727730,159.765137 127.507500,160.145508 127.287300,160.525879 127.067070,160.906250 126.846840,161.286621 126.626633,161.666992 126.406395,162.056641 126.186203,162.427734 125.965973,162.817383 125.745766,163.188477 125.525528,163.578125 125.305298,163.949219 125.085106,164.338867 124.864868,164.709961 124.644661,165.099609 124.424431,165.470703 124.204193,165.860352 123.984001,166.231445 123.763771,166.621094 123.543564,166.992188 123.323326,167.381836 123.103096,167.752930 122.882904,168.142578 122.662666,168.513672 122.442459,168.903320 122.222229,169.274414 122.001991,169.664062 121.781799,170.035156 121.561569,170.424805 121.341362,170.795898 121.121124,171.176270 120.900894,171.556641 120.680702,171.937012 120.460464,172.317383 120.240257,172.697754 120.020027,173.078125 119.799797,173.458496 119.579597,173.838867 119.359367,174.219238 119.139160,174.599609 118.918930,174.979980 118.698692,175.360352 118.478500,175.740723 118.258270,176.121094 118.038063,176.501465 117.817825,176.881836 117.597595,177.262207 117.377396,177.642578 117.157166,178.022949 116.936958,178.403320 116.716728,178.783691 116.496490,179.164062 116.276299,179.544434 116.056068,179.924805 115.835861,180.305176 115.615623,180.685547 115.395393,181.056641 115.175156,181.446289 114.954964,181.817383 114.734734,182.207031 114.514496,182.578125 114.294289,182.967773 114.074059,183.338867 113.853867,183.728516 113.633629,184.099609 113.413399,184.489258 113.193192,184.860352 112.972961,185.250000 112.752762,185.621094 112.532532,186.010742 112.312302,186.381836 112.092094,186.771484 111.871857,187.142578 111.651665,187.532227 111.431427,187.903320 111.211197,188.292969 110.990990,188.664062 110.770760,189.053711 110.550560,189.424805 110.330330,189.814453 110.110100,190.185547 109.889893,190.575195 109.669655,190.946289 109.449455,191.335922 109.229225,191.707016 109.008987,192.096695 108.788788,192.467789 108.568558,192.848145 108.348358,193.228516 108.128120,193.608871 107.907890,193.989258 107.687691,194.369644 107.467453,194.750000 107.247253,195.130371 107.027023,195.510727 106.806786,195.891113 106.586586,196.271500 106.366356,196.651855 106.146156,197.032227 105.925919,197.412582 105.705688,197.792969 105.485489,198.173355 105.265259,198.553711 105.045052,198.934082 104.824821,199.314438 104.604591,199.694824 104.384384,200.075211 104.164154,200.455566 103.943954,200.835938 103.723724,201.216293 103.503487,201.596680 103.283287,201.977066 103.063057,202.357422 102.842857,202.737793 102.622620,203.118149 102.402390,203.498535 102.182190,203.878922 101.961952,204.259277 101.741753,204.639648 101.521523,205.020004 101.301285,205.400391 101.081085,205.780777 100.860855,206.161133 100.640656,206.550766 100.420418,206.921860 100.200188,207.311539 99.979988,207.682632 99.759750,208.072266 99.539551,208.443359 99.319321,208.833008 99.099083,209.204102 98.878853,209.593750 98.658653,209.964844 98.438416,210.354477 98.218216,210.725571 97.997986,211.115250 97.777756,211.486343 97.557549,211.875977 97.337318,212.247070 97.117119,212.636719 96.896889,213.007812 96.676651,213.397461 96.456451,213.768555 96.236221,214.158188 96.016014,214.529282 95.795784,214.918961 95.575554,215.290054 95.355354,215.679688 95.135117,216.050781 94.914917,216.440430 94.694687,216.811523 94.474449,217.201172 94.254250,217.572266 94.034019,217.961899 93.813820,218.332993 93.593582,218.722672 93.373352,219.093765 93.153152,219.483398 92.932915,219.854492 92.712715,220.244141 92.492485,220.615234 92.272247,221.004883 92.052048,221.375977 91.831818,221.765610 91.611618,222.136703 91.391380,222.526382 91.171150,222.897476 90.950951,223.287109 90.730713,223.658203 90.510513,224.047852 90.290283,224.418945 90.070045,224.808594 89.849846,225.179688 89.629616,225.569321 89.409416,225.940414 89.189178,226.330093 88.968948,226.701187 88.748749,227.090820 88.528519,227.461914 88.308311,227.851562 88.088081,228.222656 87.867851,228.612305 87.647644,228.983398 87.427414,229.373032 87.207214,229.744125 86.986984,230.133804 86.766747,230.504898 86.546547,230.894531 86.326317,231.265625 86.106117,231.655273 85.885880,232.026367 85.665649,232.416016 85.445450,232.787109 85.225212,233.176743 85.005013,233.547836 84.784782,233.937515 84.564545,234.308609 84.344345,234.698242 84.124115,235.069336 83.903915,235.458984 83.683678,235.830078 83.463448,236.219727 83.243248,236.590820 83.023010,236.980453 82.802811,237.351547 82.582581,237.741226 82.362343,238.121582 82.142143,238.501953 81.921913,238.882309 81.701714,239.262695 81.481476,239.643082 81.261246,240.023438 81.041046,240.403809 80.820808,240.784164 80.600609,241.164551 80.380379,241.544937 80.160149,241.925293 79.939941,242.305664 79.719711,242.686020 79.499512,243.066406 79.279282,243.446793 79.059044,243.827148 78.838844,244.207520 78.618614,244.587875 78.398407,244.968262 78.178177,245.348648 77.957947,245.729004 77.737747,246.109375 77.517509,246.489731 77.297310,246.870117 77.077080,247.250504 76.856842,247.630859 76.636612,248.011230 76.416412,248.391586 76.196175,248.771973 75.975975,249.152359 75.755745,249.532715 75.535507,249.913086 75.315308,250.293442 75.095078,250.673828 74.874878,251.054214 74.654640,251.434570 74.434410,251.814941 74.214211,252.195297 73.993973,252.575684 73.773773,252.956070 73.553543,253.336426 73.333313,253.716797 73.113106,254.097153 72.892876,254.477539 72.672676,254.857925 72.452438,255.238281 72.232208,255.618652 72.012009,255.999008 71.791779,256.379395 71.571571,256.759766 71.351341,257.140137 71.131111,257.520508 70.910912,257.900879 70.690674,258.281250 70.470474,258.661621 70.250244,259.041992 70.030006,259.422363 69.809807,259.802734 69.589577,260.183105 69.369377,260.563477 69.149139,260.943848 68.928909,261.324219 68.708710,261.704590 68.488472,262.084961 68.268272,262.465332 68.048042,262.845703 67.827805,263.226074 67.607605,263.606445 67.387375,263.986816 67.167175,264.367188 66.946938,264.747559 66.726707,265.127930 66.506508,265.508301 66.286270,265.888672 66.066071,266.259766 65.845840,266.640137 65.625603,267.020508 65.405403,267.400879 65.185173,267.781250 64.964973,268.161621 64.744736,268.541992 64.524506,268.922363 64.304306,269.302734 64.084076,269.692383 63.863873,270.063477 63.643639,270.453125 63.423405,270.824219 63.203205,271.213867 62.982971,271.584961 62.762772,271.974609 62.542538,272.345703 62.322304,272.735352 62.102104,273.106445 61.881870,273.496094 61.661671,273.867188 61.441437,274.256836 61.221203,274.627930 61.001003,275.017578 60.780769,275.388672 60.560570,275.778320 60.340336,276.149414 60.120106,276.539062 59.899902,276.910156 59.679672,277.299805 59.459469,277.670898 59.239235,278.060547 59.019005,278.431641 58.798801,278.821289 58.578571,279.192383 58.358368,279.582031 58.138138,279.953125 57.917904,280.342773 57.697704,280.713867 57.477470,281.103516 57.257271,281.474609 57.037037,281.864258 56.816803,282.235352 56.596603,282.625000 56.376369,282.996094 56.156170,283.385742 55.935936,283.756836 55.715702,284.146484 55.495502,284.517578 55.275269,284.907227 55.055069,285.278320 54.834839,285.667969 54.614605,286.039062 54.394386,286.428711 54.174171,286.799805 53.953938,287.189453 53.733738,287.560547 53.513504,287.950195 53.293289,288.321289 53.073071,288.710938 52.852837,289.082031 52.632637,289.471680 52.412403,289.842773 52.192188,290.232422 51.971970,290.603516 51.751736,290.993164 51.531536,291.364258 51.311302,291.753906 51.091087,292.125000 50.870869,292.514648 50.650639,292.895020 50.430435,293.275391 50.210205,293.655762 49.989986,294.036133 49.769768,294.416504 49.549538,294.796875 49.329334,295.177246 49.109104,295.557617 48.888885,295.937988 48.668671,296.318359 48.448437,296.698730 48.228237,297.079102 48.008003,297.459473 47.787785,297.839844 47.567570,298.220215 47.347336,298.600586 47.127136,298.980957 46.906902,299.361328 46.686684,299.741699 46.466469,300.122070 46.246235,300.502441 46.026035,300.882812 45.805801,301.263184 45.585587,301.643555 45.365368,302.023926 45.145134,302.404297 44.924934,302.784668 44.704700,303.165039 44.484486,303.545410 44.264267,303.925781 44.044033,304.306152 43.823833,304.686523 43.603600,305.066895 43.383385,305.447266 43.163166,305.827637 42.942932,306.208008 42.722733,306.588379 42.502499,306.968750 42.282284,307.349121 42.062065,307.729492 41.841835,308.109863 41.621632,308.490234 41.401402,308.870605 41.181183,309.250977 40.960964,309.631348 40.740734,310.011719 40.520531,310.392090 40.300301,310.772461 40.080082,311.152832 39.859867,311.533203 39.639633,311.913574 39.419434,312.293945 39.199200,312.674316 38.978981,313.054688 38.758766,313.435059 38.538532,313.815430 38.318333,314.195801 38.098099,314.576172 37.877880,314.956543 37.657665,315.336914 37.437431,315.717285 37.217232,316.097656 36.996998,316.478027 36.776779,316.858398 36.556564,317.238770 36.336330,317.619141 36.116131,317.999512 35.895897,318.379883 35.675682,318.760254 35.455463,319.140625 35.235229,319.520996 35.015030,319.901367 34.794796,320.281738 34.574581,320.662109 34.354362,321.042480 34.134129,321.422852 33.913929,321.803223 33.693695,322.183594 33.473480,322.563965 33.253262,322.944336 33.033031,323.324707 32.812798,323.705078 32.592598,324.085449 32.372364,324.465820 32.152145,324.846191 31.931929,325.226562 31.711697,325.606934 31.491495,325.987305 31.271263,326.367676 31.051046,326.748047 30.830830,327.128418 30.610596,327.508789 30.390396,327.889160 30.170162,328.269531 29.949945,328.649902 29.729729,329.030273 29.509495,329.410645 29.289295,329.791016 29.069061,330.171387 28.848845,330.551758 28.628628,330.932129 28.408394,331.312500 28.188194,331.692871 27.967960,332.073242 27.747744,332.453613 27.527527,332.833984 27.307295,333.214355 27.087093,333.594727 26.866861,333.975098 26.646645,334.355469 26.426428,334.735840 26.206194,335.116211 25.985994,335.496582 25.765760,335.876953 25.545544,336.257324 25.325327,336.637695 25.105093,337.018066 24.884893,337.398438 24.664660,337.778809 24.444443,338.159180 24.224226,338.539551 24.003992,338.919922 23.783792,339.300293 23.563559,339.680664 23.343342,340.061035 23.123125,340.441406 22.902893,340.821777 22.682692,341.202148 22.462460,341.582520 22.242243,341.962891 22.022026,342.333984 21.801792,342.714355 21.581593,343.094727 21.361359,343.475098 21.141142,343.855469 20.920925,344.235840 20.700691,344.616211 20.480492,345.005859 20.260258,345.376953 20.040041,345.766602 19.819824,346.137695 19.599590,346.527344 19.379391,346.898438 19.159157,347.288086 18.938940,347.659180 18.718723,348.048828 18.498491,348.419922 18.278290,348.809570 18.058058,349.180664 17.837841,349.570312 17.617624,349.941406 17.397390,350.331055 17.177191,350.702148 16.956957,351.091797 16.736740,351.462891 16.516523,351.852539 16.296289,352.223633 16.076090,352.613281 15.855856,352.993652 15.635639,353.374023 15.415422,353.754395 15.195189,354.134766 14.974989,354.515137 14.754756,354.895508 14.534539,355.275879 14.314322,355.656250 14.094089,356.036621 13.873889,356.416992 13.653655,356.797363 13.433438,357.177734 13.213222,357.558105 12.992989,357.938477 12.772788,358.318848 12.552555,358.699219 12.332338,359.079590 12.112122,359.459961 11.891888,359.840332 11.671688,360.220703 11.451454,360.601074 11.231237,360.981445 11.011021,361.361816 10.790788,361.742188 10.570555,362.122559 10.350354,362.502930 10.130121,362.883301 9.909904,363.263672 9.689687,363.644043 9.469454,364.024414 9.249253,364.404785 9.029020,364.785156 8.808804,365.165527 8.588587,365.545898 8.368354,365.926270 8.148153,366.306641 7.927920,366.687012 7.707703,367.067383 7.487486,367.447754 7.267253,367.828125 7.047053,368.208496 6.826819,368.588867 6.606603,368.969238 6.386386,369.349609 6.166152,369.729980 5.945952,370.110352 5.725719,370.490723 5.505502,370.871094 5.285285,371.251465 5.065052,371.631836 4.844852,372.012207 4.624619,372.392578 4.404402,372.772949 4.184185,373.153320 3.963952,373.533691 3.743751,373.914062 3.523518,374.294434 3.303301,374.674805 3.083085,375.055176 2.862851,375.435547 2.642651,375.815918 2.422418,376.196289 2.202201,376.576660 1.981984,376.957031 1.761751,377.337402 1.541550,377.717773 1.321317,378.098145 1.101100,378.478516 0.880884,378.858887 0.660650,379.239258 0.440450,379.619629 0.220217,380.000000 0.000000"/>
				<rect width="100%" height="100%" stroke-width="2" stroke="#000000" fill="none"/>
				<line x1="0" x2="0" y1="220" y2="215" stroke="black"/>
				<line x1="54.285717" x2="54.285717" y1="220" y2="215" stroke="black"/>
				<line x1="108.571434" x2="108.571434" y1="220" y2="215" stroke="black"/>
				<line x1="162.857147" x2="162.857147" y1="220" y2="215" stroke="black"/>
				<line x1="217.142868" x2="217.142868" y1="220" y2="215" stroke="black"/>
				<line x1="271.428589" x2="271.428589" y1="220" y2="215" stroke="black"/>
				<line x1="325.714294" x2="325.714294" y1="220" y2="215" stroke="black"/>
				<line x1="380" x2="380" y1="220" y2="215" stroke="black"/>
				<line x1="0" x2="5" y1="260" y2="260" stroke="black"/>
				<line x1="0" x2="5" y1="205" y2="205" stroke="black"/>
				<line x1="0" x2="5" y1="150" y2="150" stroke="black"/>
				<line x1="0" x2="5" y1="95" y2="95" stroke="black"/>
				<line x1="0" x2="5" y1="40" y2="40" stroke="black"/>
			</svg>
		</svg>
		<rect width="100%" height="100%" stroke-width="2" stroke="#000000" fill="none"/>
		<text font-family="Arial" font-size="8" text-anchor="middle" x="60" y="270">2018.00</text>
		<text font-family="Arial" font-size="8" text-anchor="middle" x="114.285721" y="270">2018.71</text>
		<text font-family="Arial" font-size="8" text-anchor="middle" x="168.571442" y="270">2019.43</text>
		<text font-family="Arial" font-size="8" text-anchor="middle" x="222.857147" y="270">2020.14</text>
		<text font-family="Arial" font-size="8" text-anchor="middle" x="277.142883" y="270">2020.86</text>
		<text font-family="Arial" font-size="8" text-anchor="middle" x="331.428589" y="270">2021.57</text>
		<text font-family="Arial" font-size="8" text-anchor="middle" x="385.714294" y="270">2022.29</text>
		<text font-family="Arial" font-size="8" text-anchor="middle" x="440" y="270">2023.00</text>
		<text font-family="Arial" font-size="8" dominant-baseline="middle" x="40" y="260">0.40</text>
		<text font-family="Arial" font-size="8" dominant-baseline="middle" x="40" y="205">0.50</text>
		<text font-family="Arial" font-size="8" dominant-baseline="middle" x="40" y="150">0.60</text>
		<text font-family="Arial" font-size="8" dominant-baseline="middle" x="40" y="95">0.70</text>
		<text font-family="Arial" font-size="8" dominant-baseline="middle" x="40" y="40">0.80</text>
		<text font-family="Arial" font-size="16" text-anchor="middle" dominant-baseline="middle" x="250" y="20">ISOBEL motivation over time</text>
		<text font-family="Arial" font-size="12" text-anchor="middle" dominant-baseline="middle" x="250" y="280">Time [year]</text>
		<text font-family="Arial" font-size="12" text-anchor="middle" dominant-baseline="middle" x="30" y="150" transform="rotate(-90, 30, 150)">Motivation [% of maximum]</text>
	</svg>
</svg>
